<svg width="170" height="48" viewBox="0 0 170 48" fill="none" xmlns="http://www.w3.org/2000/svg">
<rect x="0.5" y="0.5" width="169" height="47" stroke="white"/>
<path d="M25 21V19H27V21H25ZM25 29V23H27V29H25ZM32 29H30C29.45 29 28.9792 28.8042 28.5875 28.4125C28.1958 28.0208 28 27.55 28 27V21C28 20.45 28.1958 19.9792 28.5875 19.5875C28.9792 19.1958 29.45 19 30 19H32C32.55 19 33.0208 19.1958 33.4125 19.5875C33.8042 19.9792 34 20.45 34 21V27C34 27.55 33.8042 28.0208 33.4125 28.4125C33.0208 28.8042 32.55 29 32 29ZM30 27H32V21H30V27ZM35 29V27H39V25H37C36.45 25 35.9792 24.8042 35.5875 24.4125C35.1958 24.0208 35 23.55 35 23V21C35 20.45 35.1958 19.9792 35.5875 19.5875C35.9792 19.1958 36.45 19 37 19H41V21H37V23H39C39.55 23 40.0208 23.1958 40.4125 23.5875C40.8042 23.9792 41 24.45 41 25V27C41 27.55 40.8042 28.0208 40.4125 28.4125C40.0208 28.8042 39.55 29 39 29H35Z" fill="white"/>
<path d="M55.728 14.72C56.5547 14.72 57.1947 14.9493 57.648 15.408C58.1013 15.8613 58.328 16.512 58.328 17.36C58.328 18.2027 58.1013 18.8533 57.648 19.312C57.1947 19.7707 56.5547 20 55.728 20H53.688V14.72H55.728ZM55.672 19.12C56.1733 19.12 56.5493 18.9707 56.8 18.672C57.056 18.368 57.184 17.9307 57.184 17.36C57.184 16.7893 57.056 16.3547 56.8 16.056C56.5493 15.752 56.1733 15.6 55.672 15.6H54.792V19.12H55.672ZM61.718 14.64C62.2407 14.64 62.6913 14.7493 63.07 14.968C63.4487 15.1867 63.7393 15.4987 63.942 15.904C64.15 16.3093 64.254 16.7947 64.254 17.36C64.254 17.9253 64.15 18.4107 63.942 18.816C63.7393 19.2213 63.4487 19.5333 63.07 19.752C62.6913 19.9707 62.2407 20.08 61.718 20.08C61.1953 20.08 60.742 19.9707 60.358 19.752C59.9793 19.5333 59.686 19.2213 59.478 18.816C59.2753 18.4107 59.174 17.9253 59.174 17.36C59.174 16.7947 59.2753 16.3093 59.478 15.904C59.686 15.4987 59.9793 15.1867 60.358 14.968C60.742 14.7493 61.1953 14.64 61.718 14.64ZM61.718 15.544C61.4193 15.544 61.166 15.6133 60.958 15.752C60.75 15.8907 60.59 16.096 60.478 16.368C60.3713 16.6347 60.318 16.9653 60.318 17.36C60.318 17.7493 60.3713 18.08 60.478 18.352C60.59 18.624 60.75 18.8293 60.958 18.968C61.166 19.1067 61.4193 19.176 61.718 19.176C62.0113 19.176 62.262 19.1067 62.47 18.968C62.678 18.8293 62.8353 18.624 62.942 18.352C63.054 18.08 63.11 17.7493 63.11 17.36C63.11 16.9653 63.054 16.6347 62.942 16.368C62.8353 16.096 62.678 15.8907 62.47 15.752C62.262 15.6133 62.0113 15.544 61.718 15.544ZM66.2661 20L64.7301 14.72H65.9061L66.9461 19.08L68.0021 14.72H69.0581L70.1301 19.08L71.1621 14.72H72.2901L70.7541 20H69.5141L68.7781 17.12L68.5301 15.872H68.5141L68.2661 17.12L67.5381 20H66.2661ZM77.6771 14.72V20H76.4131L74.5651 16.896L74.1091 16.032H74.1011L74.1331 16.944V20H73.1411V14.72H74.3971L76.2451 17.816L76.7011 18.688H76.7171L76.6851 17.776V14.72H77.6771ZM80.1592 19.112H82.9432V20H79.0552V14.72H80.1592V19.112ZM85.9602 14.64C86.4829 14.64 86.9335 14.7493 87.3122 14.968C87.6909 15.1867 87.9815 15.4987 88.1842 15.904C88.3922 16.3093 88.4962 16.7947 88.4962 17.36C88.4962 17.9253 88.3922 18.4107 88.1842 18.816C87.9815 19.2213 87.6909 19.5333 87.3122 19.752C86.9335 19.9707 86.4829 20.08 85.9602 20.08C85.4375 20.08 84.9842 19.9707 84.6002 19.752C84.2215 19.5333 83.9282 19.2213 83.7202 18.816C83.5175 18.4107 83.4162 17.9253 83.4162 17.36C83.4162 16.7947 83.5175 16.3093 83.7202 15.904C83.9282 15.4987 84.2215 15.1867 84.6002 14.968C84.9842 14.7493 85.4375 14.64 85.9602 14.64ZM85.9602 15.544C85.6615 15.544 85.4082 15.6133 85.2002 15.752C84.9922 15.8907 84.8322 16.096 84.7202 16.368C84.6135 16.6347 84.5602 16.9653 84.5602 17.36C84.5602 17.7493 84.6135 18.08 84.7202 18.352C84.8322 18.624 84.9922 18.8293 85.2002 18.968C85.4082 19.1067 85.6615 19.176 85.9602 19.176C86.2535 19.176 86.5042 19.1067 86.7122 18.968C86.9202 18.8293 87.0775 18.624 87.1842 18.352C87.2962 18.08 87.3522 17.7493 87.3522 17.36C87.3522 16.9653 87.2962 16.6347 87.1842 16.368C87.0775 16.096 86.9202 15.8907 86.7122 15.752C86.5042 15.6133 86.2535 15.544 85.9602 15.544ZM93.9986 20H92.8546L92.4146 18.712H90.3906L89.9506 20H88.8226L90.7506 14.72H92.0706L93.9986 20ZM90.6386 17.896H92.1666L91.3986 15.592L90.6386 17.896ZM96.8218 14.72C97.6484 14.72 98.2884 14.9493 98.7418 15.408C99.1951 15.8613 99.4218 16.512 99.4218 17.36C99.4218 18.2027 99.1951 18.8533 98.7418 19.312C98.2884 19.7707 97.6484 20 96.8218 20H94.7818V14.72H96.8218ZM96.7658 19.12C97.2671 19.12 97.6431 18.9707 97.8938 18.672C98.1498 18.368 98.2778 17.9307 98.2778 17.36C98.2778 16.7893 98.1498 16.3547 97.8938 16.056C97.6431 15.752 97.2671 15.6 96.7658 15.6H95.8858V19.12H96.7658ZM105.257 14.64C105.78 14.64 106.23 14.7493 106.609 14.968C106.988 15.1867 107.278 15.4987 107.481 15.904C107.689 16.3093 107.793 16.7947 107.793 17.36C107.793 17.9253 107.689 18.4107 107.481 18.816C107.278 19.2213 106.988 19.5333 106.609 19.752C106.23 19.9707 105.78 20.08 105.257 20.08C104.734 20.08 104.281 19.9707 103.897 19.752C103.518 19.5333 103.225 19.2213 103.017 18.816C102.814 18.4107 102.713 17.9253 102.713 17.36C102.713 16.7947 102.814 16.3093 103.017 15.904C103.225 15.4987 103.518 15.1867 103.897 14.968C104.281 14.7493 104.734 14.64 105.257 14.64ZM105.257 15.544C104.958 15.544 104.705 15.6133 104.497 15.752C104.289 15.8907 104.129 16.096 104.017 16.368C103.91 16.6347 103.857 16.9653 103.857 17.36C103.857 17.7493 103.91 18.08 104.017 18.352C104.129 18.624 104.289 18.8293 104.497 18.968C104.705 19.1067 104.958 19.176 105.257 19.176C105.55 19.176 105.801 19.1067 106.009 18.968C106.217 18.8293 106.374 18.624 106.481 18.352C106.593 18.08 106.649 17.7493 106.649 17.36C106.649 16.9653 106.593 16.6347 106.481 16.368C106.374 16.096 106.217 15.8907 106.009 15.752C105.801 15.6133 105.55 15.544 105.257 15.544ZM113.443 14.72V20H112.179L110.331 16.896L109.875 16.032H109.867L109.899 16.944V20H108.907V14.72H110.163L112.011 17.816L112.467 18.688H112.483L112.451 17.776V14.72H113.443ZM121.278 14.72V15.608H119.51V20H118.406V15.608H116.63V14.72H121.278ZM126.716 14.72V20H125.612V14.72H126.716ZM123.284 14.72V20H122.18V14.72H123.284ZM126.188 16.888V17.776H122.732V16.888H126.188ZM128.094 20V14.72H132.054V15.608H129.198V16.92H131.446V17.768H129.198V19.112H132.166V20H128.094Z" fill="white"/>
<path d="M53.28 32L55.681 21.675H60.168L62.555 32H59.664L57.921 23.362H57.935L56.171 32H53.28ZM55.38 29.83V27.709H60.476V29.83H55.38ZM66.4281 32H63.6001V21.675H67.5551C68.3391 21.675 69.0227 21.8313 69.6061 22.144C70.1894 22.452 70.6421 22.8743 70.9641 23.411C71.2861 23.9477 71.4471 24.5543 71.4471 25.231C71.4471 25.9077 71.2861 26.5237 70.9641 27.079C70.6421 27.6297 70.1894 28.0707 69.6061 28.402C69.0227 28.7287 68.3391 28.892 67.5551 28.892H66.4281V32ZM66.4281 28.073L65.1541 26.799H67.2681C67.5014 26.799 67.7184 26.743 67.9191 26.631C68.1244 26.5143 68.2901 26.3393 68.4161 26.106C68.5421 25.8727 68.6051 25.581 68.6051 25.231C68.6051 24.881 68.5421 24.5987 68.4161 24.384C68.2901 24.1693 68.1244 24.0153 67.9191 23.922C67.7184 23.824 67.5014 23.775 67.2681 23.775H65.1541L66.4281 22.501V28.073ZM75.4925 32H72.6645V21.675H76.6195C77.4035 21.675 78.0872 21.8313 78.6705 22.144C79.2539 22.452 79.7065 22.8743 80.0285 23.411C80.3505 23.9477 80.5115 24.5543 80.5115 25.231C80.5115 25.9077 80.3505 26.5237 80.0285 27.079C79.7065 27.6297 79.2539 28.0707 78.6705 28.402C78.0872 28.7287 77.4035 28.892 76.6195 28.892H75.4925V32ZM75.4925 28.073L74.2185 26.799H76.3325C76.5659 26.799 76.7829 26.743 76.9835 26.631C77.1889 26.5143 77.3545 26.3393 77.4805 26.106C77.6065 25.8727 77.6695 25.581 77.6695 25.231C77.6695 24.881 77.6065 24.5987 77.4805 24.384C77.3545 24.1693 77.1889 24.0153 76.9835 23.922C76.7829 23.824 76.5659 23.775 76.3325 23.775H74.2185L75.4925 22.501V28.073ZM88.974 32.182C88.2087 32.182 87.5227 32.0607 86.916 31.818C86.3093 31.5707 85.8287 31.2043 85.474 30.719C85.124 30.2337 84.949 29.6317 84.949 28.913C84.949 28.8523 84.949 28.7917 84.949 28.731C84.949 28.6703 84.949 28.6097 84.949 28.549H87.77C87.77 28.6003 87.77 28.6517 87.77 28.703C87.77 28.7543 87.77 28.8057 87.77 28.857C87.77 29.1837 87.8703 29.4567 88.071 29.676C88.2763 29.8953 88.5867 30.005 89.002 30.005C89.4033 30.005 89.7183 29.9467 89.947 29.83C90.1803 29.7087 90.297 29.5127 90.297 29.242C90.297 29.0413 90.1873 28.8547 89.968 28.682C89.7533 28.5093 89.4617 28.346 89.093 28.192C88.729 28.038 88.323 27.891 87.875 27.751C87.3897 27.597 86.9277 27.3893 86.489 27.128C86.055 26.8667 85.7003 26.5283 85.425 26.113C85.1497 25.693 85.012 25.1727 85.012 24.552C85.012 23.9127 85.1893 23.3667 85.544 22.914C85.8987 22.4567 86.3747 22.1067 86.972 21.864C87.574 21.6213 88.2413 21.5 88.974 21.5C89.7347 21.5 90.4137 21.619 91.011 21.857C91.613 22.095 92.089 22.445 92.439 22.907C92.789 23.369 92.964 23.9407 92.964 24.622C92.964 24.6827 92.964 24.741 92.964 24.797C92.964 24.853 92.964 24.9113 92.964 24.972H90.143C90.143 24.9487 90.143 24.9137 90.143 24.867C90.143 24.8157 90.143 24.7783 90.143 24.755C90.143 24.4517 90.0567 24.195 89.884 23.985C89.716 23.775 89.4243 23.67 89.009 23.67C88.5983 23.67 88.281 23.7447 88.057 23.894C87.8377 24.0433 87.728 24.2603 87.728 24.545C87.728 24.7457 87.8213 24.923 88.008 25.077C88.1947 25.2263 88.4513 25.3663 88.778 25.497C89.1093 25.6277 89.4827 25.7677 89.898 25.917C90.5233 26.1363 91.0717 26.379 91.543 26.645C92.0143 26.9063 92.3807 27.2353 92.642 27.632C92.908 28.0287 93.041 28.5373 93.041 29.158C93.041 29.8067 92.866 30.3573 92.516 30.81C92.166 31.258 91.683 31.5987 91.067 31.832C90.4557 32.0653 89.758 32.182 88.974 32.182ZM101.615 23.775H97.9191L99.1931 22.501V32H96.3721V22.501L97.6461 23.775H93.9571V21.675H101.615V23.775ZM106.968 32.182C106.301 32.182 105.666 32.0677 105.064 31.839C104.467 31.6103 103.937 31.2697 103.475 30.817C103.013 30.3643 102.649 29.8043 102.383 29.137C102.117 28.4697 101.984 27.6997 101.984 26.827C101.984 25.9497 102.115 25.1797 102.376 24.517C102.642 23.8543 103.004 23.299 103.461 22.851C103.923 22.403 104.453 22.067 105.05 21.843C105.652 21.6143 106.291 21.5 106.968 21.5C107.645 21.5 108.284 21.6143 108.886 21.843C109.488 22.067 110.018 22.403 110.475 22.851C110.937 23.299 111.299 23.8543 111.56 24.517C111.821 25.1797 111.952 25.9497 111.952 26.827C111.952 27.6997 111.819 28.4697 111.553 29.137C111.287 29.8043 110.921 30.3643 110.454 30.817C109.992 31.2697 109.46 31.6103 108.858 31.839C108.261 32.0677 107.631 32.182 106.968 32.182ZM106.968 29.998C107.313 29.998 107.647 29.9047 107.969 29.718C108.296 29.5267 108.562 29.2 108.767 28.738C108.977 28.276 109.082 27.639 109.082 26.827C109.082 26.0103 108.977 25.3757 108.767 24.923C108.557 24.4657 108.291 24.146 107.969 23.964C107.647 23.7773 107.313 23.684 106.968 23.684C106.627 23.684 106.294 23.7773 105.967 23.964C105.645 24.146 105.379 24.4657 105.169 24.923C104.959 25.3757 104.854 26.0103 104.854 26.827C104.854 27.6437 104.959 28.283 105.169 28.745C105.379 29.2023 105.645 29.5267 105.967 29.718C106.294 29.9047 106.627 29.998 106.968 29.998ZM113.215 32V21.675H117.793C118.969 21.675 119.837 21.9363 120.397 22.459C120.962 22.977 121.244 23.7003 121.244 24.629C121.244 25.1517 121.144 25.5973 120.943 25.966C120.743 26.3347 120.493 26.6193 120.194 26.82C119.896 27.0207 119.599 27.1327 119.305 27.156C119.609 27.1747 119.891 27.247 120.152 27.373C120.414 27.499 120.624 27.702 120.782 27.982C120.946 28.2573 121.027 28.6307 121.027 29.102C121.027 29.4007 121.027 29.6853 121.027 29.956C121.027 30.2267 121.027 30.5113 121.027 30.81C121.027 31.0573 121.046 31.293 121.083 31.517C121.125 31.7363 121.188 31.8973 121.272 32H118.444C118.37 31.8833 118.311 31.7177 118.269 31.503C118.232 31.2883 118.213 31.0573 118.213 30.81C118.213 30.5533 118.213 30.3223 118.213 30.117C118.213 29.9117 118.213 29.6807 118.213 29.424C118.213 29.0507 118.134 28.7567 117.975 28.542C117.817 28.3227 117.53 28.213 117.114 28.213H115.238L115.973 27.352V32H113.215ZM115.973 27.1L115.238 26.113H117.142C117.38 26.113 117.588 26.064 117.765 25.966C117.947 25.868 118.087 25.728 118.185 25.546C118.288 25.3593 118.339 25.1423 118.339 24.895C118.339 24.5917 118.23 24.328 118.01 24.104C117.796 23.88 117.502 23.768 117.128 23.768H115.168L115.973 22.928V27.1ZM124.094 23.775L125.368 22.501V26.526L124.738 25.77H128.448V27.87H124.738L125.368 27.121V31.174L124.094 29.9H129.225V32H122.526V21.675H129.225V23.775H124.094Z" fill="white"/>
</svg>
