<svg width="170" height="48" viewBox="0 0 170 48" fill="none" xmlns="http://www.w3.org/2000/svg">
<rect x="0.5" y="0.5" width="168.84" height="47" stroke="white"/>
<path d="M25 31V17L36 24L25 31ZM27 27.35L32.25 24L27 20.65V27.35Z" fill="white"/>
<path d="M50.856 20.08C50.3707 20.08 49.944 19.9733 49.576 19.76C49.2133 19.5467 48.9307 19.2373 48.728 18.832C48.5253 18.4267 48.424 17.9387 48.424 17.368C48.424 16.8027 48.5307 16.3173 48.744 15.912C48.9573 15.5013 49.2587 15.1867 49.648 14.968C50.0427 14.7493 50.4987 14.64 51.016 14.64C51.5867 14.64 52.048 14.7467 52.4 14.96C52.752 15.168 53.032 15.4933 53.24 15.936L52.216 16.376C52.1307 16.0933 51.984 15.8853 51.776 15.752C51.5733 15.6133 51.3227 15.544 51.024 15.544C50.7253 15.544 50.4667 15.616 50.248 15.76C50.0293 15.8987 49.8613 16.104 49.744 16.376C49.6267 16.6427 49.568 16.9707 49.568 17.36C49.568 17.76 49.624 18.0987 49.736 18.376C49.848 18.648 50.0133 18.8533 50.232 18.992C50.456 19.1253 50.7307 19.192 51.056 19.192C51.232 19.192 51.3947 19.1707 51.544 19.128C51.6987 19.0853 51.832 19.0213 51.944 18.936C52.056 18.8507 52.144 18.7413 52.208 18.608C52.272 18.4747 52.304 18.32 52.304 18.144V18.024H50.92V17.216H53.256V20H52.48L52.4 18.848L52.592 18.984C52.4747 19.336 52.2667 19.608 51.968 19.8C51.6747 19.9867 51.304 20.08 50.856 20.08ZM54.4693 20V14.72H58.4293V15.608H55.5733V16.92H57.8212V17.768H55.5733V19.112H58.5413V20H54.4693ZM63.7078 14.72V15.608H61.9398V20H60.8358V15.608H59.0598V14.72H63.7078ZM67.9951 14.72V20H66.8911V14.72H67.9951ZM73.5437 14.72V15.608H71.7757V20H70.6717V15.608H68.8957V14.72H73.5437ZM79.0071 14.64C79.5297 14.64 79.9804 14.7493 80.3591 14.968C80.7377 15.1867 81.0284 15.4987 81.2311 15.904C81.4391 16.3093 81.5431 16.7947 81.5431 17.36C81.5431 17.9253 81.4391 18.4107 81.2311 18.816C81.0284 19.2213 80.7377 19.5333 80.3591 19.752C79.9804 19.9707 79.5297 20.08 79.0071 20.08C78.4844 20.08 78.0311 19.9707 77.6471 19.752C77.2684 19.5333 76.9751 19.2213 76.7671 18.816C76.5644 18.4107 76.4631 17.9253 76.4631 17.36C76.4631 16.7947 76.5644 16.3093 76.7671 15.904C76.9751 15.4987 77.2684 15.1867 77.6471 14.968C78.0311 14.7493 78.4844 14.64 79.0071 14.64ZM79.0071 15.544C78.7084 15.544 78.4551 15.6133 78.2471 15.752C78.0391 15.8907 77.8791 16.096 77.7671 16.368C77.6604 16.6347 77.6071 16.9653 77.6071 17.36C77.6071 17.7493 77.6604 18.08 77.7671 18.352C77.8791 18.624 78.0391 18.8293 78.2471 18.968C78.4551 19.1067 78.7084 19.176 79.0071 19.176C79.3004 19.176 79.5511 19.1067 79.7591 18.968C79.9671 18.8293 80.1244 18.624 80.2311 18.352C80.3431 18.08 80.3991 17.7493 80.3991 17.36C80.3991 16.9653 80.3431 16.6347 80.2311 16.368C80.1244 16.096 79.9671 15.8907 79.7591 15.752C79.5511 15.6133 79.3004 15.544 79.0071 15.544ZM87.1928 14.72V20H85.9288L84.0807 16.896L83.6248 16.032H83.6168L83.6488 16.944V20H82.6568V14.72H83.9128L85.7608 17.816L86.2168 18.688H86.2328L86.2008 17.776V14.72H87.1928Z" fill="white"/>
<path d="M52.7125 32.169C51.9238 32.169 51.2067 31.9848 50.561 31.6165C49.9153 31.2438 49.4018 30.6935 49.0205 29.9655C48.6435 29.2332 48.455 28.3253 48.455 27.242C48.455 26.1587 48.6587 25.2465 49.066 24.5055C49.4733 23.7645 50.0193 23.2033 50.704 22.822C51.393 22.4407 52.16 22.25 53.005 22.25C53.72 22.25 54.3245 22.3605 54.8185 22.5815C55.3168 22.8025 55.7198 23.0863 56.0275 23.433C56.3395 23.7753 56.5648 24.135 56.7035 24.512C56.8465 24.889 56.918 25.2335 56.918 25.5455C56.918 25.5585 56.918 25.5715 56.918 25.5845C56.918 25.5975 56.918 25.6105 56.918 25.6235H54.37C54.37 25.6105 54.37 25.5975 54.37 25.5845C54.37 25.5715 54.37 25.5585 54.37 25.5455C54.37 25.3808 54.3375 25.2227 54.2725 25.071C54.2118 24.9193 54.1208 24.785 53.9995 24.668C53.8825 24.5467 53.7395 24.4513 53.5705 24.382C53.4015 24.3127 53.213 24.278 53.005 24.278C52.719 24.278 52.4308 24.3625 52.1405 24.5315C51.8502 24.7005 51.6075 24.9995 51.4125 25.4285C51.2175 25.8532 51.12 26.4577 51.12 27.242C51.12 27.8313 51.1742 28.3167 51.2825 28.698C51.3952 29.075 51.5403 29.3697 51.718 29.582C51.9 29.79 52.0993 29.9373 52.316 30.024C52.537 30.1063 52.7558 30.1475 52.9725 30.1475C53.2845 30.1475 53.551 30.0977 53.772 29.998C53.9973 29.894 54.175 29.7683 54.305 29.621C54.4393 29.4693 54.5238 29.322 54.5585 29.179V28.815H52.9595V27.0015H56.879V32H55.657L55.3905 30.9405C55.3602 31.0358 55.2865 31.1528 55.1695 31.2915C55.0568 31.4302 54.8943 31.5667 54.682 31.701C54.4697 31.8353 54.201 31.9458 53.876 32.0325C53.551 32.1235 53.1632 32.169 52.7125 32.169ZM62.7187 32.169C62.0991 32.169 61.5097 32.0628 60.9507 31.8505C60.3961 31.6382 59.9042 31.3218 59.4752 30.9015C59.0462 30.4812 58.7082 29.9612 58.4612 29.3415C58.2142 28.7218 58.0907 28.0068 58.0907 27.1965C58.0907 26.3818 58.2121 25.6668 58.4547 25.0515C58.7017 24.4362 59.0376 23.9205 59.4622 23.5045C59.8912 23.0885 60.3831 22.7765 60.9377 22.5685C61.4967 22.3562 62.0904 22.25 62.7187 22.25C63.3471 22.25 63.9407 22.3562 64.4997 22.5685C65.0587 22.7765 65.5506 23.0885 65.9752 23.5045C66.4042 23.9205 66.7401 24.4362 66.9827 25.0515C67.2254 25.6668 67.3467 26.3818 67.3467 27.1965C67.3467 28.0068 67.2232 28.7218 66.9762 29.3415C66.7292 29.9612 66.3891 30.4812 65.9557 30.9015C65.5267 31.3218 65.0327 31.6382 64.4737 31.8505C63.9191 32.0628 63.3341 32.169 62.7187 32.169ZM62.7187 30.141C63.0394 30.141 63.3492 30.0543 63.6482 29.881C63.9516 29.7033 64.1986 29.4 64.3892 28.971C64.5842 28.542 64.6817 27.9505 64.6817 27.1965C64.6817 26.4382 64.5842 25.8488 64.3892 25.4285C64.1942 25.0038 63.9472 24.707 63.6482 24.538C63.3492 24.3647 63.0394 24.278 62.7187 24.278C62.4024 24.278 62.0926 24.3647 61.7892 24.538C61.4902 24.707 61.2432 25.0038 61.0482 25.4285C60.8532 25.8488 60.7557 26.4382 60.7557 27.1965C60.7557 27.9548 60.8532 28.5485 61.0482 28.9775C61.2432 29.4022 61.4902 29.7033 61.7892 29.881C62.0926 30.0543 62.4024 30.141 62.7187 30.141ZM72.8877 32.169C72.268 32.169 71.6787 32.0628 71.1197 31.8505C70.565 31.6382 70.0732 31.3218 69.6442 30.9015C69.2152 30.4812 68.8772 29.9612 68.6302 29.3415C68.3832 28.7218 68.2597 28.0068 68.2597 27.1965C68.2597 26.3818 68.381 25.6668 68.6237 25.0515C68.8707 24.4362 69.2065 23.9205 69.6312 23.5045C70.0602 23.0885 70.552 22.7765 71.1067 22.5685C71.6657 22.3562 72.2594 22.25 72.8877 22.25C73.516 22.25 74.1097 22.3562 74.6687 22.5685C75.2277 22.7765 75.7195 23.0885 76.1442 23.5045C76.5732 23.9205 76.909 24.4362 77.1517 25.0515C77.3944 25.6668 77.5157 26.3818 77.5157 27.1965C77.5157 28.0068 77.3922 28.7218 77.1452 29.3415C76.8982 29.9612 76.558 30.4812 76.1247 30.9015C75.6957 31.3218 75.2017 31.6382 74.6427 31.8505C74.088 32.0628 73.503 32.169 72.8877 32.169ZM72.8877 30.141C73.2084 30.141 73.5182 30.0543 73.8172 29.881C74.1205 29.7033 74.3675 29.4 74.5582 28.971C74.7532 28.542 74.8507 27.9505 74.8507 27.1965C74.8507 26.4382 74.7532 25.8488 74.5582 25.4285C74.3632 25.0038 74.1162 24.707 73.8172 24.538C73.5182 24.3647 73.2084 24.278 72.8877 24.278C72.5714 24.278 72.2615 24.3647 71.9582 24.538C71.6592 24.707 71.4122 25.0038 71.2172 25.4285C71.0222 25.8488 70.9247 26.4382 70.9247 27.1965C70.9247 27.9548 71.0222 28.5485 71.2172 28.9775C71.4122 29.4022 71.6592 29.7033 71.9582 29.881C72.2615 30.0543 72.5714 30.141 72.8877 30.141ZM82.6861 32.169C81.8975 32.169 81.1803 31.9848 80.5346 31.6165C79.889 31.2438 79.3755 30.6935 78.9941 29.9655C78.6171 29.2332 78.4286 28.3253 78.4286 27.242C78.4286 26.1587 78.6323 25.2465 79.0396 24.5055C79.447 23.7645 79.993 23.2033 80.6776 22.822C81.3666 22.4407 82.1336 22.25 82.9786 22.25C83.6936 22.25 84.2981 22.3605 84.7921 22.5815C85.2905 22.8025 85.6935 23.0863 86.0011 23.433C86.3131 23.7753 86.5385 24.135 86.6771 24.512C86.8201 24.889 86.8916 25.2335 86.8916 25.5455C86.8916 25.5585 86.8916 25.5715 86.8916 25.5845C86.8916 25.5975 86.8916 25.6105 86.8916 25.6235H84.3436C84.3436 25.6105 84.3436 25.5975 84.3436 25.5845C84.3436 25.5715 84.3436 25.5585 84.3436 25.5455C84.3436 25.3808 84.3111 25.2227 84.2461 25.071C84.1855 24.9193 84.0945 24.785 83.9731 24.668C83.8561 24.5467 83.7131 24.4513 83.5441 24.382C83.3751 24.3127 83.1866 24.278 82.9786 24.278C82.6926 24.278 82.4045 24.3625 82.1141 24.5315C81.8238 24.7005 81.5811 24.9995 81.3861 25.4285C81.1911 25.8532 81.0936 26.4577 81.0936 27.242C81.0936 27.8313 81.1478 28.3167 81.2561 28.698C81.3688 29.075 81.514 29.3697 81.6916 29.582C81.8736 29.79 82.073 29.9373 82.2896 30.024C82.5106 30.1063 82.7295 30.1475 82.9461 30.1475C83.2581 30.1475 83.5246 30.0977 83.7456 29.998C83.971 29.894 84.1486 29.7683 84.2786 29.621C84.413 29.4693 84.4975 29.322 84.5321 29.179V28.815H82.9331V27.0015H86.8526V32H85.6306L85.3641 30.9405C85.3338 31.0358 85.2601 31.1528 85.1431 31.2915C85.0305 31.4302 84.868 31.5667 84.6556 31.701C84.4433 31.8353 84.1746 31.9458 83.8496 32.0325C83.5246 32.1235 83.1368 32.169 82.6861 32.169ZM88.3244 32V22.4125H90.9504V31.2265L89.7674 29.9135H94.3694V32H88.3244ZM96.9659 24.3625L98.1489 23.1795V26.917L97.5639 26.215H101.009V28.165H97.5639L98.1489 27.4695V31.233L96.9659 30.05H101.73V32H95.5099V22.4125H101.73V24.3625H96.9659ZM109.041 32H106.415V22.4125H110.088C110.816 22.4125 111.451 22.5577 111.992 22.848C112.534 23.134 112.954 23.5262 113.253 24.0245C113.552 24.5228 113.702 25.0862 113.702 25.7145C113.702 26.3428 113.552 26.9148 113.253 27.4305C112.954 27.9418 112.534 28.3513 111.992 28.659C111.451 28.9623 110.816 29.114 110.088 29.114H109.041V32ZM109.041 28.3535L107.858 27.1705H109.821C110.038 27.1705 110.239 27.1185 110.426 27.0145C110.616 26.9062 110.77 26.7437 110.887 26.527C111.004 26.3103 111.063 26.0395 111.063 25.7145C111.063 25.3895 111.004 25.1273 110.887 24.928C110.77 24.7287 110.616 24.5857 110.426 24.499C110.239 24.408 110.038 24.3625 109.821 24.3625H107.858L109.041 23.1795V28.3535ZM114.832 32V22.4125H117.458V31.2265L116.275 29.9135H120.877V32H114.832ZM121.563 32L123.792 22.4125H127.959L130.175 32H127.491L125.872 23.979H125.885L124.247 32H121.563ZM123.513 29.985V28.0155H128.245V29.985H123.513ZM137.683 22.4125L134.836 28.7175V32H132.223V28.7175L129.396 22.4125H132.171L134.05 27.502H133.023L134.901 22.4125H137.683Z" fill="white"/>
</svg>
